<svg width="20" height="20" viewBox="0 0 20 20" fill="none" xmlns="http://www.w3.org/2000/svg">
<g clip-path="url(#clip0_57_858)">
<path d="M0 2.5V9.16667H9.16667V0H2.5C1.83696 0 1.20107 0.263392 0.732233 0.732233C0.263392 1.20107 0 1.83696 0 2.5H0Z" fill="#16191D"/>
<path d="M0 17.5C0 18.163 0.263392 18.7989 0.732233 19.2677C1.20107 19.7366 1.83696 20 2.5 20H9.16667V10.8333H0V17.5Z" fill="#16191D"/>
<path d="M10.833 10.8333V20H17.4997C18.1627 20 18.7986 19.7366 19.2674 19.2677C19.7363 18.7989 19.9997 18.163 19.9997 17.5V10.8333H10.833Z" fill="#16191D"/>
<path d="M14.1663 9.16668H15.833V5.83334H19.1663V4.16668H15.833V0.833344H14.1663V4.16668H10.833V5.83334H14.1663V9.16668Z" fill="#16191D"/>
</g>
<defs>
<clipPath id="clip0_57_858">
<rect width="20" height="20" fill="white"/>
</clipPath>
</defs>
</svg>
