<svg width="1252" height="418" viewBox="0 0 1252 418" fill="none" xmlns="http://www.w3.org/2000/svg">
<ellipse cx="604.488" cy="606.572" rx="604.488" ry="606.572" fill="#EEF5FF"/>
<path d="M1252 626C1252 971.73 972.693 1252 628.151 1252C283.609 1252 4.30252 971.73 4.30252 626C4.30252 280.27 283.609 -2.67029e-05 628.151 -2.67029e-05C972.693 -2.67029e-05 1252 280.27 1252 626ZM226.522 626C226.522 848.579 406.337 1029.01 628.151 1029.01C849.965 1029.01 1029.78 848.579 1029.78 626C1029.78 403.421 849.965 222.986 628.151 222.986C406.337 222.986 226.522 403.421 226.522 626Z" fill="#5AA0FD"/>
<path d="M1049.79 623.841C1049.79 858.7 860.051 1049.09 626 1049.09C391.949 1049.09 202.213 858.7 202.213 623.841C202.213 388.983 391.949 198.593 626 198.593C860.051 198.593 1049.79 388.983 1049.79 623.841ZM353.169 623.841C353.169 775.041 475.319 897.613 626 897.613C776.68 897.613 898.831 775.041 898.831 623.841C898.831 472.641 776.68 350.07 626 350.07C475.319 350.07 353.169 472.641 353.169 623.841Z" fill="#86B6F6"/>
<path d="M899.202 623.841C899.202 775.247 776.885 897.986 626 897.986C475.114 897.986 352.797 775.247 352.797 623.841C352.797 472.435 475.114 349.697 626 349.697C776.885 349.697 899.202 472.435 899.202 623.841ZM450.114 623.841C450.114 721.316 528.861 800.334 626 800.334C723.139 800.334 801.886 721.316 801.886 623.841C801.886 526.367 723.139 447.349 626 447.349C528.861 447.349 450.114 526.367 450.114 623.841Z" fill="#B4D4FF"/>
</svg>
