<svg width="141" height="56" viewBox="0 0 141 56" fill="none" xmlns="http://www.w3.org/2000/svg">
<ellipse cx="27.5378" cy="27.131" rx="27.0378" ry="27.131" fill="#EEF5FF"/>
<path d="M56.5 28C56.5 43.464 44.007 56 28.5962 56C13.1854 56 0.692444 43.464 0.692444 28C0.692444 12.536 13.1854 0 28.5962 0C44.007 0 56.5 12.536 56.5 28ZM10.632 28C10.632 37.9556 18.6748 46.0262 28.5962 46.0262C38.5176 46.0262 46.5605 37.9556 46.5605 28C46.5605 18.0444 38.5176 9.9738 28.5962 9.9738C18.6748 9.9738 10.632 18.0444 10.632 28Z" fill="#5AA0FD"/>
<path d="M47.4553 27.9034C47.4553 38.4083 38.9687 46.9241 28.5 46.9241C18.0313 46.9241 9.54468 38.4083 9.54468 27.9034C9.54468 17.3986 18.0313 8.88275 28.5 8.88275C38.9687 8.88275 47.4553 17.3986 47.4553 27.9034ZM16.2967 27.9034C16.2967 34.6664 21.7603 40.1488 28.5 40.1488C35.2397 40.1488 40.7033 34.6664 40.7033 27.9034C40.7033 21.1405 35.2397 15.6581 28.5 15.6581C21.7603 15.6581 16.2967 21.1405 16.2967 27.9034Z" fill="#86B6F6"/>
<path d="M40.7199 27.9034C40.7199 34.6756 35.2489 40.1655 28.5 40.1655C21.7511 40.1655 16.2801 34.6756 16.2801 27.9034C16.2801 21.1313 21.7511 15.6414 28.5 15.6414C35.2489 15.6414 40.7199 21.1313 40.7199 27.9034ZM20.6329 27.9034C20.6329 32.2633 24.1551 35.7977 28.5 35.7977C32.8449 35.7977 36.3671 32.2633 36.3671 27.9034C36.3671 23.5436 32.8449 20.0092 28.5 20.0092C24.1551 20.0092 20.6329 23.5436 20.6329 27.9034Z" fill="#B4D4FF"/>
<path d="M62.3947 28.11C62.3947 26.2638 62.818 24.6147 63.6645 23.1628C64.5294 21.693 65.6979 20.5548 67.17 19.7482C68.6606 18.9237 70.3259 18.5114 72.1661 18.5114C74.3191 18.5114 76.2053 19.0492 77.8247 20.1246C79.4441 21.2001 80.5758 22.6878 81.2198 24.5878H76.7758C76.3341 23.6916 75.7085 23.0194 74.8988 22.5713C74.1075 22.1232 73.1874 21.8992 72.1385 21.8992C71.016 21.8992 70.0131 22.1591 69.1298 22.6789C68.2649 23.1808 67.5841 23.8977 67.0872 24.8298C66.6088 25.7619 66.3695 26.8553 66.3695 28.11C66.3695 29.3468 66.6088 30.4402 67.0872 31.3902C67.5841 32.3222 68.2649 33.0482 69.1298 33.568C70.0131 34.0699 71.016 34.3208 72.1385 34.3208C73.1874 34.3208 74.1075 34.0967 74.8988 33.6486C75.7085 33.1826 76.3341 32.5015 76.7758 31.6052H81.2198C80.5758 33.5232 79.4441 35.0199 77.8247 36.0953C76.2237 37.1529 74.3375 37.6816 72.1661 37.6816C70.3259 37.6816 68.6606 37.2783 67.17 36.4717C65.6979 35.6472 64.5294 34.509 63.6645 33.0571C62.818 31.6052 62.3947 29.9562 62.3947 28.11Z" fill="#16191D"/>
<path d="M94.4575 37.5203L90.2067 30.2071H88.3849V37.5203H84.5205V18.7534H91.7524C93.243 18.7534 94.5127 19.0133 95.5616 19.5331C96.6105 20.035 97.3926 20.7251 97.9079 21.6034C98.4415 22.4638 98.7083 23.4317 98.7083 24.5072C98.7083 25.744 98.3403 26.8642 97.6042 27.868C96.8682 28.8538 95.7732 29.535 94.3195 29.9114L98.9292 37.5203H94.4575ZM88.3849 27.384H91.6144C92.6633 27.384 93.4454 27.1421 93.9607 26.6581C94.4759 26.1562 94.7335 25.4661 94.7335 24.5878C94.7335 23.7275 94.4759 23.0643 93.9607 22.5982C93.4454 22.1143 92.6633 21.8723 91.6144 21.8723H88.3849V27.384Z" fill="#16191D"/>
<path d="M123.209 18.7534V37.5203H119.345V25.3138L114.183 37.5203H111.257L106.068 25.3138V37.5203H102.204V18.7534H106.592L112.72 32.7076L118.848 18.7534H123.209Z" fill="#16191D"/>
<path d="M133.682 37.7085C132.339 37.7085 131.124 37.4845 130.039 37.0364C128.971 36.5882 128.125 35.943 127.499 35.1005C126.873 34.2581 126.551 33.2633 126.533 32.1161H130.673C130.729 32.8868 131.005 33.4963 131.502 33.9444C132.017 34.3925 132.716 34.6166 133.599 34.6166C134.501 34.6166 135.209 34.4104 135.725 33.9982C136.24 33.568 136.498 33.0123 136.498 32.3312C136.498 31.7755 136.323 31.3185 135.973 30.96C135.624 30.6015 135.182 30.3236 134.648 30.1265C134.133 29.9114 133.415 29.6784 132.495 29.4274C131.244 29.0689 130.223 28.7194 129.431 28.3788C128.658 28.0204 127.987 27.4916 127.416 26.7925C126.864 26.0756 126.588 25.1256 126.588 23.9425C126.588 22.8312 126.873 21.8633 127.444 21.0388C128.014 20.2143 128.815 19.5869 129.845 19.1567C130.876 18.7086 132.054 18.4846 133.378 18.4846C135.366 18.4846 136.976 18.9596 138.209 19.9096C139.46 20.8416 140.15 22.1501 140.279 23.835H136.028C135.992 23.1897 135.706 22.661 135.173 22.2487C134.657 21.8185 133.967 21.6034 133.102 21.6034C132.348 21.6034 131.741 21.7916 131.281 22.168C130.839 22.5444 130.618 23.0911 130.618 23.8081C130.618 24.31 130.784 24.7312 131.115 25.0718C131.465 25.3944 131.888 25.6633 132.385 25.8784C132.9 26.0756 133.618 26.3086 134.538 26.5774C135.789 26.9359 136.81 27.2944 137.602 27.6529C138.393 28.0114 139.074 28.5491 139.644 29.2661C140.215 29.9831 140.5 30.9241 140.5 32.0892C140.5 33.093 140.233 34.025 139.7 34.8854C139.166 35.7458 138.384 36.4359 137.353 36.9557C136.323 37.4576 135.099 37.7085 133.682 37.7085Z" fill="#16191D"/>
</svg>
