<svg width="27" height="27" viewBox="0 0 27 27" fill="none" xmlns="http://www.w3.org/2000/svg">
<path d="M5.3999 5.4C5.3999 4.68391 5.68437 3.99716 6.19071 3.49081C6.69706 2.98446 7.38382 2.7 8.0999 2.7H14.291C15.007 2.70015 15.6937 2.98471 16.1999 3.4911L20.8088 8.1C21.3152 8.60623 21.5998 9.29287 21.5999 10.0089V21.6C21.5999 22.3161 21.3154 23.0028 20.8091 23.5092C20.3027 24.0155 19.616 24.3 18.8999 24.3H16.8371C18.2165 22.7568 18.9529 20.7442 18.895 18.6751C18.8371 16.6061 17.9893 14.6378 16.5257 13.1742C15.0621 11.7106 13.0938 10.8628 11.0248 10.8049C8.95575 10.747 6.94306 11.4834 5.3999 12.8628V5.4Z" fill="#16191D"/>
<path fill-rule="evenodd" clip-rule="evenodd" d="M10.8001 13.5C9.84787 13.4999 8.91256 13.7515 8.08899 14.2294C7.26541 14.7074 6.58284 15.3946 6.11051 16.2214C5.63817 17.0481 5.39285 17.9851 5.39944 18.9373C5.40602 19.8895 5.66426 20.823 6.14798 21.6432L4.44563 23.3442C4.3202 23.4695 4.22069 23.6184 4.15277 23.7822C4.08486 23.946 4.04987 24.1215 4.0498 24.2988C4.04974 24.4762 4.08461 24.6518 4.15241 24.8156C4.22021 24.9795 4.31961 25.1283 4.44495 25.2538C4.57029 25.3792 4.71911 25.4787 4.88291 25.5466C5.04671 25.6145 5.22228 25.6495 5.3996 25.6496C5.57692 25.6497 5.75252 25.6148 5.91636 25.547C6.08021 25.4792 6.2291 25.3798 6.35453 25.2545L8.05688 23.5521C8.77217 23.9737 9.57504 24.2246 10.4031 24.2855C11.2311 24.3463 12.0621 24.2154 12.8313 23.9029C13.6005 23.5904 14.2873 23.1047 14.8383 22.4836C15.3893 21.8625 15.7897 21.1227 16.0083 20.3217C16.2269 19.5207 16.2578 18.6801 16.0987 17.8652C15.9396 17.0503 15.5947 16.283 15.0908 15.6231C14.587 14.9632 13.9378 14.4283 13.1936 14.0601C12.4494 13.6919 11.6304 13.5002 10.8001 13.5ZM8.10008 18.9C8.10008 18.1839 8.38454 17.4972 8.89089 16.9908C9.39724 16.4845 10.084 16.2 10.8001 16.2C11.5162 16.2 12.2029 16.4845 12.7093 16.9908C13.2156 17.4972 13.5001 18.1839 13.5001 18.9C13.5001 19.6161 13.2156 20.3028 12.7093 20.8092C12.2029 21.3155 11.5162 21.6 10.8001 21.6C10.084 21.6 9.39724 21.3155 8.89089 20.8092C8.38454 20.3028 8.10008 19.6161 8.10008 18.9Z" fill="#16191D"/>
</svg>
