<svg width="27" height="27" viewBox="0 0 27 27" fill="none" xmlns="http://www.w3.org/2000/svg">
<path d="M12.2161 3.95145C12.6211 2.7081 14.3801 2.7081 14.7838 3.95145L16.2283 8.39565C16.3165 8.66631 16.4881 8.90214 16.7184 9.06944C16.9488 9.23674 17.2261 9.32694 17.5108 9.32715H22.1845C23.4926 9.32715 24.0353 11.0011 22.9783 11.7706L19.1983 14.5165C18.9675 14.684 18.7956 14.9202 18.7073 15.1913C18.619 15.4625 18.6189 15.7546 18.7069 16.0258L20.1514 20.47C20.5564 21.7134 19.1321 22.7488 18.0724 21.9793L14.2924 19.2334C14.0618 19.0661 13.7842 18.9759 13.4992 18.9759C13.2143 18.9759 12.9367 19.0661 12.7061 19.2334L8.92612 21.9793C7.86772 22.7488 6.44482 21.7134 6.84847 20.47L8.29297 16.0258C8.38095 15.7546 8.38079 15.4625 8.29252 15.1913C8.20424 14.9202 8.03237 14.684 7.80157 14.5165L4.02292 11.772C2.96587 11.0025 3.50992 9.3285 4.81672 9.3285H9.48907C9.77398 9.32857 10.0516 9.2385 10.2822 9.07119C10.5128 8.90387 10.6846 8.66788 10.7729 8.397L12.2174 3.9528L12.2161 3.95145Z" fill="#16191D"/>
</svg>
