<svg width="27" height="27" viewBox="0 0 27 27" fill="none" xmlns="http://www.w3.org/2000/svg">
<g clip-path="url(#clip0_57_696)">
<path d="M8.73033 7.48278L11.8588 4.35318L11.8824 19.6885C11.8824 20.6205 12.6379 21.3759 13.5699 21.3759C14.5018 21.3759 15.2573 20.6205 15.2573 19.6885L15.2337 4.37232L18.3442 7.48283C18.9916 8.15316 20.0599 8.17172 20.7302 7.52428C21.4005 6.87683 21.4191 5.80858 20.7716 5.13825C20.758 5.12417 20.7442 5.11036 20.7302 5.09681L17.1168 1.48344C15.1399 -0.493536 11.9346 -0.493536 9.95767 1.48339L9.95761 1.48344L6.3443 5.09675C5.69686 5.76708 5.71542 6.83533 6.38575 7.48278C7.03968 8.11435 8.07639 8.11435 8.73033 7.48278Z" fill="#16191D"/>
<path d="M25.3119 16.3128C24.38 16.3128 23.6245 17.0683 23.6245 18.0002V23.1649C23.6238 23.4187 23.4182 23.6244 23.1644 23.625H3.83543C3.58158 23.6243 3.37592 23.4187 3.37534 23.1649V18.0002C3.37534 17.0683 2.61985 16.3128 1.68792 16.3128C0.755981 16.3128 0.000488281 17.0683 0.000488281 18.0002V23.1649C0.00296669 25.2819 1.7185 26.9973 3.83543 26.9998H23.1643C25.2813 26.9973 26.9968 25.2818 26.9993 23.1649V18.0002C26.9993 17.0683 26.2438 16.3128 25.3119 16.3128Z" fill="#16191D"/>
</g>
<defs>
<clipPath id="clip0_57_696">
<rect width="27" height="27" fill="white"/>
</clipPath>
</defs>
</svg>
